<svg width="334" height="273" viewBox="0 0 334 273" fill="none" xmlns="http://www.w3.org/2000/svg">
<path d="M334 239.908H0V240.091H334V239.908Z" fill="#EBEBEB"/>
<path d="M221.255 253.692H215.45V253.875H221.255V253.692Z" fill="#EBEBEB"/>
<path d="M115.711 244.583H100.227V244.766H115.711V244.583Z" fill="#EBEBEB"/>
<path d="M306.458 248.511H268.603V248.694H306.458V248.511Z" fill="#EBEBEB"/>
<path d="M66.3925 248.511H28.537V248.694H66.3925V248.511Z" fill="#EBEBEB"/>
<path d="M158.316 207.227H29.3319C28.3214 207.225 27.353 206.783 26.6391 205.999C25.9252 205.214 25.5243 204.151 25.5243 203.043V4.14747C25.5331 3.0454 25.9379 1.99165 26.6508 1.21509C27.3638 0.438531 28.3272 0.00188789 29.3319 0H158.316C159.328 0 160.298 0.440824 161.013 1.2255C161.728 2.01017 162.13 3.07441 162.13 4.1841V203.043C162.13 204.152 161.728 205.217 161.013 206.001C160.298 206.786 159.328 207.227 158.316 207.227ZM29.3319 0.146554C28.3657 0.148495 27.4397 0.570874 26.7572 1.32098C26.0746 2.07109 25.6913 3.08763 25.6913 4.14747V203.043C25.6913 204.102 26.0746 205.119 26.7572 205.869C27.4397 206.619 28.3657 207.042 29.3319 207.044H158.316C159.283 207.042 160.209 206.619 160.893 205.87C161.577 205.12 161.962 204.103 161.963 203.043V4.14747C161.962 3.08695 161.577 2.07043 160.893 1.32053C160.209 0.570636 159.283 0.148491 158.316 0.146554H29.3319Z" fill="#EBEBEB"/>
<path d="M302.811 207.227H173.82C172.809 207.225 171.84 206.783 171.125 205.999C170.41 205.215 170.008 204.152 170.006 203.043V4.14747C170.017 3.04473 170.423 1.99099 171.137 1.21463C171.851 0.438275 172.815 0.00186731 173.82 0H302.811C303.815 0.00381369 304.776 0.441309 305.488 1.21766C306.199 1.99401 306.603 3.04667 306.612 4.14747V203.043C306.612 204.15 306.212 205.212 305.5 205.996C304.787 206.78 303.82 207.223 302.811 207.227ZM173.82 0.146554C172.854 0.148491 171.927 0.570636 171.243 1.32053C170.56 2.07043 170.175 3.08695 170.173 4.14747V203.043C170.175 204.103 170.56 205.12 171.243 205.87C171.927 206.619 172.854 207.042 173.82 207.044H302.811C303.778 207.042 304.705 206.619 305.388 205.87C306.072 205.12 306.457 204.103 306.458 203.043V4.14747C306.457 3.08695 306.072 2.07043 305.388 1.32053C304.705 0.570636 303.778 0.148491 302.811 0.146554H173.82Z" fill="#EBEBEB"/>
<path d="M75.6844 132.895L253.052 132.895V27.2077L75.6844 27.2077V132.895Z" fill="#E6E6E6"/>
<path d="M73.667 132.895L251.034 132.895V27.2077L73.667 27.2077V132.895Z" fill="#F5F5F5"/>
<path d="M247.421 128.439V31.6628L77.2876 31.6628V128.439H247.421Z" fill="white"/>
<path d="M78.8106 128.447V31.6702H77.2876V128.447H78.8106Z" fill="#E6E6E6"/>
<path d="M75.1634 111.498L249.538 111.498V105.519L75.1634 105.519V111.498Z" fill="#F5F5F5"/>
<path d="M75.1634 60.6879L249.538 60.6879V54.7085L75.1634 54.7085V60.6879Z" fill="#F5F5F5"/>
<path d="M69.7326 19.836H256.993C257.141 19.8379 257.282 19.9036 257.385 20.0188C257.489 20.1341 257.547 20.2895 257.547 20.4515C257.547 20.6128 257.489 20.7675 257.385 20.8816C257.281 20.9956 257.14 21.0597 256.993 21.0597H69.7326C69.5849 21.0597 69.4432 20.9959 69.3381 20.882C69.2331 20.7682 69.1732 20.6135 69.1714 20.4515C69.1732 20.2889 69.2329 20.1334 69.3377 20.0184C69.4426 19.9034 69.5843 19.8379 69.7326 19.836Z" fill="#E6E6E6"/>
<path d="M66.3925 20.4516C66.3925 21.0563 66.556 21.6473 66.8624 22.15C67.1688 22.6526 67.6042 23.0443 68.1136 23.2753C68.623 23.5064 69.1834 23.5665 69.724 23.448C70.2645 23.3295 70.7608 23.0377 71.1501 22.6096C71.5394 22.1816 71.8042 21.6364 71.9109 21.0432C72.0176 20.45 71.9615 19.8354 71.7497 19.2772C71.5378 18.7189 71.1797 18.2422 70.7208 17.9073C70.2618 17.5725 69.7226 17.3945 69.1714 17.3959C68.8059 17.3959 68.444 17.475 68.1064 17.6287C67.7688 17.7823 67.4622 18.0075 67.204 18.2914C66.9459 18.5752 66.7414 18.9121 66.6021 19.2828C66.4628 19.6535 66.3916 20.0507 66.3925 20.4516Z" fill="#E6E6E6"/>
<path d="M252.304 23.8662C252.502 23.8662 252.692 23.7798 252.833 23.6259C252.973 23.472 253.052 23.2632 253.052 23.0455V21.2503C253.052 21.0326 252.973 20.8239 252.833 20.6699C252.692 20.516 252.502 20.4296 252.304 20.4296C252.105 20.4296 251.914 20.5158 251.772 20.6695C251.631 20.8232 251.551 21.0319 251.549 21.2503V23.0236C251.547 23.1335 251.565 23.2428 251.602 23.3449C251.64 23.4471 251.695 23.5401 251.765 23.6186C251.835 23.697 251.919 23.7593 252.012 23.8018C252.104 23.8444 252.203 23.8663 252.304 23.8662Z" fill="#E6E6E6"/>
<path d="M78.156 23.8663C78.355 23.8663 78.546 23.78 78.6874 23.6263C78.8287 23.4726 78.909 23.2639 78.9108 23.0456V21.2503C78.9039 21.0358 78.8213 20.8326 78.6805 20.6836C78.5397 20.5346 78.3516 20.4514 78.156 20.4516C78.0566 20.4467 77.9574 20.4635 77.864 20.5012C77.7707 20.5389 77.6851 20.5966 77.6123 20.671C77.5396 20.7453 77.481 20.8349 77.4402 20.9343C77.3993 21.0338 77.377 21.1412 77.3744 21.2503V23.0236C77.3715 23.1364 77.3899 23.2486 77.4283 23.3532C77.4668 23.4578 77.5245 23.5526 77.5978 23.6317C77.6712 23.7108 77.7586 23.7724 77.8546 23.8128C77.9506 23.8531 78.0532 23.8714 78.156 23.8663Z" fill="#E6E6E6"/>
<path opacity="0.5" d="M69.9129 42.6398L249.545 42.6398V20.4516L69.9129 20.4516V42.6398Z" fill="#E0E0E0"/>
<path d="M243.346 23.5072C244.884 23.5072 246.131 22.1392 246.131 20.4516C246.131 18.764 244.884 17.3959 243.346 17.3959C241.807 17.3959 240.56 18.764 240.56 20.4516C240.56 22.1392 241.807 23.5072 243.346 23.5072Z" fill="#E6E6E6"/>
<path d="M197.654 239.908H209.051V156.343H197.654V239.908Z" fill="#E6E6E6"/>
<path d="M200.654 239.908H197.654V228.528H203.793L200.654 239.908Z" fill="#F0F0F0"/>
<path d="M290.199 239.908H301.595V156.343H290.199V239.908Z" fill="#E6E6E6"/>
<path d="M197.655 232.925H292.811V156.343H197.655V232.925Z" fill="#F0F0F0"/>
<path d="M199.979 180.73H290.487V159.729H199.979V180.73Z" fill="#E6E6E6"/>
<path d="M217.935 166.258H270.54C273.459 166.258 276.258 163.671 278.269 159.091H210.206C212.217 163.671 215.009 166.258 217.935 166.258Z" fill="#F0F0F0"/>
<path d="M289.819 239.908H292.811V228.528H286.672L289.819 239.908Z" fill="#F0F0F0"/>
<path d="M199.979 205.131H290.487V184.13H199.979V205.131Z" fill="#E6E6E6"/>
<path d="M217.935 190.659H270.54C273.459 190.659 276.258 188.065 278.269 183.492H210.206C212.217 188.065 215.009 190.659 217.935 190.659Z" fill="#F0F0F0"/>
<path d="M199.979 229.532H290.487V208.531H199.979V229.532Z" fill="#E6E6E6"/>
<path d="M217.935 215.053H270.54C273.459 215.053 276.258 212.459 278.269 207.886H210.206C212.217 212.459 215.009 215.053 217.935 215.053Z" fill="#F0F0F0"/>
<path d="M266.679 114.444C264.875 107.783 287.34 74.4565 297.2 75.453C307.06 76.4496 289.725 116.876 284.401 120.452C278.396 124.49 268.643 121.691 266.679 114.444Z" fill="#F5F5F5"/>
<path d="M265.39 124.05C264.521 120.65 280.226 115.118 286.465 119.126C292.704 123.134 279.966 133.459 276.445 132.99C272.43 132.462 266.338 127.751 265.39 124.05Z" fill="#F5F5F5"/>
<path d="M284.468 121.002C286.639 116.532 270.647 90.4235 262.123 89.9399C253.6 89.4563 264.548 119.983 268.75 123.112C273.499 126.666 282.096 125.86 284.468 121.002Z" fill="#F5F5F5"/>
<path d="M276.271 107.109H276.238C275.833 107.102 275.439 107.256 275.13 107.543C274.82 107.83 274.616 108.23 274.555 108.67C272.703 122.444 272.478 136.424 273.887 150.261C273.933 150.702 274.125 151.109 274.424 151.407C274.724 151.705 275.112 151.873 275.517 151.881H275.55C275.786 151.885 276.02 151.833 276.237 151.73C276.454 151.626 276.648 151.474 276.806 151.282C276.965 151.09 277.085 150.863 277.157 150.616C277.229 150.369 277.253 150.109 277.227 149.851C275.885 136.318 276.107 122.654 277.888 109.182C277.921 108.927 277.904 108.666 277.839 108.419C277.773 108.171 277.66 107.941 277.507 107.745C277.354 107.549 277.165 107.39 276.952 107.281C276.739 107.171 276.507 107.112 276.271 107.109Z" fill="#EBEBEB"/>
<path d="M275.049 156.336C280.954 156.336 285.931 152.526 287.14 147.36C287.436 145.98 287.859 144.637 288.402 143.351L288.496 143.139H261.602L261.696 143.351C262.239 144.637 262.662 145.98 262.958 147.36C264.167 152.526 269.151 156.336 275.049 156.336Z" fill="#FAFAFA"/>
<path d="M261.549 144.436H288.576C289.331 144.436 289.985 143.63 290.173 142.472C290.44 140.809 289.651 139.197 288.576 139.197H261.549C260.473 139.197 259.685 140.809 259.959 142.472C260.146 143.622 260.801 144.436 261.549 144.436Z" fill="#F0F0F0"/>
<path d="M178.296 187.266H145.023V239.908H178.296V187.266Z" fill="#F0F0F0"/>
<path d="M46.0719 239.908H145.029V187.266H46.0719V239.908Z" fill="#F5F5F5"/>
<path d="M54.7627 228.25H75.6844V204.882H54.7627V228.25Z" fill="#FAFAFA"/>
<path d="M83.1661 228.25H104.088V204.882H83.1661V228.25Z" fill="#FAFAFA"/>
<g style="mix-blend-mode:multiply" opacity="0.7">
<path d="M178.296 192.865H45.7179V195.862H178.296V192.865Z" fill="#E6E6E6"/>
</g>
<path d="M180.133 185.449H145.023V194.132H180.133V185.449Z" fill="#F0F0F0"/>
<path d="M44.2349 194.125H145.029V185.442H44.2349V194.125Z" fill="#F5F5F5"/>
<path d="M72.7452 170.669C72.7452 170.669 73.3798 185.449 97.6616 185.449C121.943 185.449 122.578 170.669 122.578 170.669H72.7452Z" fill="#F0F0F0"/>
<path d="M72.7452 160.879C72.7452 160.879 73.3798 175.659 97.6616 175.659C121.943 175.659 122.578 160.879 122.578 160.879H72.7452Z" fill="#F0F0F0"/>
<path d="M167 273C238.531 273 296.519 269.286 296.519 264.705C296.519 260.124 238.531 256.41 167 256.41C95.4689 256.41 37.4815 260.124 37.4815 264.705C37.4815 269.286 95.4689 273 167 273Z" fill="#F5F5F5"/>
<path d="M127.815 248.745H62.2242V262.287H127.815V248.745Z" fill="#0E6592"/>
<path opacity="0.2" d="M127.815 248.745H62.2242V250.284H127.815V248.745Z" fill="black"/>
<path opacity="0.2" d="M69.6123 248.745H67.0271V262.287H69.6123V248.745Z" fill="black"/>
<path opacity="0.2" d="M75.5442 248.745H72.959V262.287H75.5442V248.745Z" fill="black"/>
<path opacity="0.2" d="M81.4827 248.745H78.8975V262.287H81.4827V248.745Z" fill="black"/>
<path opacity="0.2" d="M87.4145 248.745H84.8293V262.287H87.4145V248.745Z" fill="black"/>
<path opacity="0.2" d="M93.3463 248.745H90.7611V262.287H93.3463V248.745Z" fill="black"/>
<path opacity="0.2" d="M99.2849 248.745H96.6997V262.287H99.2849V248.745Z" fill="black"/>
<path opacity="0.2" d="M105.217 248.745H102.632V262.287H105.217V248.745Z" fill="black"/>
<path opacity="0.2" d="M111.149 248.745H108.563V262.287H111.149V248.745Z" fill="black"/>
<path opacity="0.2" d="M117.087 248.745H114.502V262.287H117.087V248.745Z" fill="black"/>
<path opacity="0.2" d="M123.019 248.745H120.434V262.287H123.019V248.745Z" fill="black"/>
<path d="M125.15 235.204H59.5588V248.745H125.15V235.204Z" fill="#0E6592"/>
<path opacity="0.2" d="M125.15 235.204H59.5588V236.743H125.15V235.204Z" fill="black"/>
<path opacity="0.2" d="M66.9403 235.204H64.3551V248.745H66.9403V235.204Z" fill="black"/>
<path opacity="0.2" d="M72.8788 235.204H70.2936V248.745H72.8788V235.204Z" fill="black"/>
<path opacity="0.2" d="M78.8107 235.204H76.2255V248.745H78.8107V235.204Z" fill="black"/>
<path opacity="0.2" d="M84.7425 235.204H82.1573V248.745H84.7425V235.204Z" fill="black"/>
<path opacity="0.2" d="M90.681 235.204H88.0958V248.745H90.681V235.204Z" fill="black"/>
<path opacity="0.2" d="M96.6129 235.204H94.0277V248.745H96.6129V235.204Z" fill="black"/>
<path opacity="0.2" d="M102.545 235.204H99.9595V248.745H102.545V235.204Z" fill="black"/>
<path opacity="0.2" d="M108.483 235.204H105.898V248.745H108.483V235.204Z" fill="black"/>
<path opacity="0.2" d="M114.415 235.204H111.83V248.745H114.415V235.204Z" fill="black"/>
<path opacity="0.2" d="M120.347 235.204H117.762V248.745H120.347V235.204Z" fill="black"/>
<path d="M123.259 221.662H57.6684V235.204H123.259V221.662Z" fill="#0E6592"/>
<path opacity="0.2" d="M123.259 221.662H57.6684V223.201H123.259V221.662Z" fill="black"/>
<path opacity="0.2" d="M65.0565 221.662H62.4713V235.204H65.0565V221.662Z" fill="black"/>
<path opacity="0.2" d="M70.9884 221.662H68.4032V235.204H70.9884V221.662Z" fill="black"/>
<path opacity="0.2" d="M76.9269 221.662H74.3417V235.204H76.9269V221.662Z" fill="black"/>
<path opacity="0.2" d="M82.8587 221.662H80.2735V235.204H82.8587V221.662Z" fill="black"/>
<path opacity="0.2" d="M88.7906 221.662H86.2054V235.204H88.7906V221.662Z" fill="black"/>
<path opacity="0.2" d="M94.7291 221.662H92.1439V235.204H94.7291V221.662Z" fill="black"/>
<path opacity="0.2" d="M100.661 221.662H98.0757V235.204H100.661V221.662Z" fill="black"/>
<path opacity="0.2" d="M106.593 221.662H104.008V235.204H106.593V221.662Z" fill="black"/>
<path opacity="0.2" d="M112.531 221.662H109.946V235.204H112.531V221.662Z" fill="black"/>
<path opacity="0.2" d="M118.463 221.662H115.878V235.204H118.463V221.662Z" fill="black"/>
<path d="M126.232 208.128H60.6411V221.67H126.232V208.128Z" fill="#0E6592"/>
<path opacity="0.2" d="M126.232 208.128H60.6411V209.667H126.232V208.128Z" fill="black"/>
<path opacity="0.2" d="M68.0224 208.128H65.4373V221.67H68.0224V208.128Z" fill="black"/>
<path opacity="0.2" d="M73.961 208.128H71.3759V221.67H73.961V208.128Z" fill="black"/>
<path opacity="0.2" d="M79.8928 208.128H77.3077V221.67H79.8928V208.128Z" fill="black"/>
<path opacity="0.2" d="M85.8246 208.128H83.2395V221.67H85.8246V208.128Z" fill="black"/>
<path opacity="0.2" d="M91.7631 208.128H89.178V221.67H91.7631V208.128Z" fill="black"/>
<path opacity="0.2" d="M97.695 208.128H95.1099V221.67H97.695V208.128Z" fill="black"/>
<path opacity="0.2" d="M103.627 208.128H101.042V221.67H103.627V208.128Z" fill="black"/>
<path opacity="0.2" d="M109.565 208.128H106.98V221.67H109.565V208.128Z" fill="black"/>
<path opacity="0.2" d="M115.497 208.128H112.912V221.67H115.497V208.128Z" fill="black"/>
<path opacity="0.2" d="M121.429 208.128H118.844V221.67H121.429V208.128Z" fill="black"/>
<path d="M57.7619 208.121H123.353V194.579H57.7619V208.121Z" fill="#0E6592"/>
<path opacity="0.2" d="M57.7619 196.118H123.353V194.579H57.7619V196.118Z" fill="black"/>
<path opacity="0.2" d="M115.965 208.121H118.55V194.579H115.965V208.121Z" fill="black"/>
<path opacity="0.2" d="M110.026 208.121H112.611V194.579H110.026V208.121Z" fill="black"/>
<path opacity="0.2" d="M104.094 208.121H106.68V194.579H104.094V208.121Z" fill="black"/>
<path opacity="0.2" d="M98.1626 208.121H100.748V194.579H98.1626V208.121Z" fill="black"/>
<path opacity="0.2" d="M92.2241 208.121H94.8092V194.579H92.2241V208.121Z" fill="black"/>
<path opacity="0.2" d="M86.2923 208.121H88.8774V194.579H86.2923V208.121Z" fill="black"/>
<path opacity="0.2" d="M80.3604 208.121H82.9456V194.579H80.3604V208.121Z" fill="black"/>
<path opacity="0.2" d="M74.4219 208.121H77.007V194.579H74.4219V208.121Z" fill="black"/>
<path opacity="0.2" d="M68.4901 208.121H71.0752V194.579H68.4901V208.121Z" fill="black"/>
<path opacity="0.2" d="M62.5582 208.121H65.1433V194.579H62.5582V208.121Z" fill="black"/>
<path d="M60.4273 194.587H126.018V181.045H60.4273V194.587Z" fill="#0E6592"/>
<path opacity="0.2" d="M60.4273 182.584H126.018V181.045H60.4273V182.584Z" fill="black"/>
<path opacity="0.2" d="M118.63 194.587H121.215V181.045H118.63V194.587Z" fill="black"/>
<path opacity="0.2" d="M112.705 194.587H115.29V181.045H112.705V194.587Z" fill="black"/>
<path opacity="0.2" d="M106.767 194.587H109.352V181.045H106.767V194.587Z" fill="black"/>
<path opacity="0.2" d="M100.828 194.587H103.413V181.045H100.828V194.587Z" fill="black"/>
<path opacity="0.2" d="M94.9028 194.587H97.4879V181.045H94.9028V194.587Z" fill="black"/>
<path opacity="0.2" d="M88.9643 194.587H91.5495V181.045H88.9643V194.587Z" fill="black"/>
<path opacity="0.2" d="M83.0257 194.587H85.6109V181.045H83.0257V194.587Z" fill="black"/>
<path opacity="0.2" d="M77.1005 194.587H79.6857V181.045H77.1005V194.587Z" fill="black"/>
<path opacity="0.2" d="M71.1621 194.587H73.7473V181.045H71.1621V194.587Z" fill="black"/>
<path opacity="0.2" d="M65.2235 194.587H67.8087V181.045H65.2235V194.587Z" fill="black"/>
<path d="M62.3178 181.045H127.909V167.503H62.3178V181.045Z" fill="#0E6592"/>
<path opacity="0.2" d="M62.3178 169.042H127.909V167.503H62.3178V169.042Z" fill="black"/>
<path opacity="0.2" d="M120.521 181.045H123.106V167.503H120.521V181.045Z" fill="black"/>
<path opacity="0.2" d="M114.582 181.045H117.167V167.503H114.582V181.045Z" fill="black"/>
<path opacity="0.2" d="M108.65 181.045H111.235V167.503H108.65V181.045Z" fill="black"/>
<path opacity="0.2" d="M102.718 181.045H105.304V167.503H102.718V181.045Z" fill="black"/>
<path opacity="0.2" d="M96.7799 181.045H99.3651V167.503H96.7799V181.045Z" fill="black"/>
<path opacity="0.2" d="M90.848 181.045H93.4332V167.503H90.848V181.045Z" fill="black"/>
<path opacity="0.2" d="M84.9161 181.045H87.5013V167.503H84.9161V181.045Z" fill="black"/>
<path opacity="0.2" d="M78.9777 181.045H81.5628V167.503H78.9777V181.045Z" fill="black"/>
<path opacity="0.2" d="M73.0458 181.045H75.631V167.503H73.0458V181.045Z" fill="black"/>
<path opacity="0.2" d="M67.114 181.045H69.6992V167.503H67.114V181.045Z" fill="black"/>
<path d="M59.3452 167.503H124.936V153.962H59.3452V167.503Z" fill="#0E6592"/>
<path opacity="0.2" d="M59.3452 155.501H124.936V153.962H59.3452V155.501Z" fill="black"/>
<path opacity="0.2" d="M117.548 167.503H120.133V153.962H117.548V167.503Z" fill="black"/>
<path opacity="0.2" d="M111.623 167.503H114.208V153.962H111.623V167.503Z" fill="black"/>
<path opacity="0.2" d="M105.684 167.503H108.269V153.962H105.684V167.503Z" fill="black"/>
<path opacity="0.2" d="M99.7458 167.503H102.331V153.962H99.7458V167.503Z" fill="black"/>
<path opacity="0.2" d="M93.8206 167.503H96.4057V153.962H93.8206V167.503Z" fill="black"/>
<path opacity="0.2" d="M87.8821 167.503H90.4672V153.962H87.8821V167.503Z" fill="black"/>
<path opacity="0.2" d="M81.9436 167.503H84.5288V153.962H81.9436V167.503Z" fill="black"/>
<path opacity="0.2" d="M76.0184 167.503H78.6035V153.962H76.0184V167.503Z" fill="black"/>
<path opacity="0.2" d="M70.0799 167.503H72.665V153.962H70.0799V167.503Z" fill="black"/>
<path opacity="0.2" d="M64.1414 167.503H66.7266V153.962H64.1414V167.503Z" fill="black"/>
<path d="M267.641 100.389L241.482 105.306C240.979 105.399 240.512 105.654 240.141 106.039C239.771 106.423 239.513 106.92 239.4 107.467C239.288 108.013 239.326 108.583 239.51 109.105C239.694 109.627 240.015 110.078 240.433 110.399L245.256 114.143L215.684 160C215.492 160.298 215.247 160.552 214.966 160.746C214.684 160.941 214.37 161.072 214.042 161.134C213.713 161.195 213.377 161.185 213.053 161.103C212.728 161.022 212.421 160.871 212.15 160.659L168.683 126.952C168.133 126.527 167.451 126.358 166.788 126.483C166.124 126.608 165.533 127.017 165.143 127.619L77.5214 263.474H109.011L171.289 166.903C171.481 166.604 171.725 166.351 172.007 166.156C172.288 165.962 172.602 165.83 172.931 165.769C173.259 165.707 173.595 165.718 173.92 165.799C174.244 165.881 174.551 166.031 174.822 166.243L218.289 199.95C218.561 200.162 218.869 200.312 219.194 200.393C219.52 200.474 219.856 200.484 220.185 200.422C220.514 200.36 220.828 200.228 221.111 200.032C221.393 199.837 221.637 199.583 221.829 199.284L266.245 130.403L271.074 134.148C271.491 134.463 271.982 134.636 272.487 134.647C272.993 134.658 273.49 134.505 273.917 134.208C274.344 133.912 274.682 133.484 274.89 132.978C275.097 132.472 275.164 131.911 275.082 131.363L270.593 102.668C270.473 101.939 270.095 101.291 269.543 100.865C268.99 100.438 268.307 100.268 267.641 100.389Z" fill="#0E6592"/>
<path opacity="0.2" d="M267.641 100.389L241.482 105.306C240.979 105.399 240.512 105.654 240.141 106.039C239.771 106.423 239.513 106.92 239.4 107.467C239.288 108.013 239.326 108.583 239.51 109.105C239.694 109.627 240.015 110.078 240.433 110.399L245.256 114.143L215.684 160C215.492 160.298 215.247 160.552 214.966 160.746C214.684 160.941 214.37 161.072 214.042 161.134C213.713 161.195 213.377 161.185 213.053 161.103C212.728 161.022 212.421 160.871 212.15 160.659L168.683 126.952C168.133 126.527 167.451 126.358 166.788 126.483C166.124 126.608 165.533 127.017 165.143 127.619L77.5214 263.474H109.011L171.289 166.903C171.481 166.604 171.725 166.351 172.007 166.156C172.288 165.962 172.602 165.83 172.931 165.769C173.259 165.707 173.595 165.718 173.92 165.799C174.244 165.881 174.551 166.031 174.822 166.243L218.289 199.95C218.561 200.162 218.869 200.312 219.194 200.393C219.52 200.474 219.856 200.484 220.185 200.422C220.514 200.36 220.828 200.228 221.111 200.032C221.393 199.837 221.637 199.583 221.829 199.284L266.245 130.403L271.074 134.148C271.491 134.463 271.982 134.636 272.487 134.647C272.993 134.658 273.49 134.505 273.917 134.208C274.344 133.912 274.682 133.484 274.89 132.978C275.097 132.472 275.164 131.911 275.082 131.363L270.593 102.668C270.473 101.939 270.095 101.291 269.543 100.865C268.99 100.438 268.307 100.268 267.641 100.389Z" fill="black"/>
<path opacity="0.2" d="M107.04 259.48H84.8761C84.8455 259.479 84.8158 259.469 84.79 259.451C84.7642 259.433 84.7432 259.408 84.7291 259.378C84.7132 259.349 84.7048 259.316 84.7048 259.283C84.7048 259.249 84.7132 259.216 84.7291 259.187L165.904 133.298C166.108 132.977 166.367 132.704 166.667 132.494C166.967 132.283 167.302 132.14 167.653 132.072C168.004 132.004 168.363 132.012 168.711 132.097C169.058 132.182 169.387 132.341 169.679 132.565L213.139 166.272C213.394 166.475 213.684 166.621 213.991 166.699C214.299 166.778 214.617 166.789 214.928 166.731C215.239 166.673 215.536 166.547 215.803 166.362C216.069 166.176 216.299 165.934 216.479 165.649L250.353 113.125L245.009 108.955C244.98 108.936 244.958 108.907 244.946 108.872C244.934 108.838 244.933 108.8 244.942 108.765C244.95 108.73 244.966 108.698 244.99 108.673C245.014 108.648 245.044 108.632 245.076 108.625L267.12 104.485C267.141 104.481 267.163 104.482 267.183 104.487C267.204 104.492 267.224 104.502 267.242 104.515C267.259 104.529 267.274 104.546 267.285 104.566C267.296 104.586 267.304 104.609 267.307 104.632L271.081 128.813C271.086 128.849 271.082 128.886 271.069 128.92C271.056 128.954 271.035 128.983 271.008 129.004C270.98 129.023 270.947 129.034 270.914 129.034C270.881 129.034 270.848 129.023 270.821 129.004L265.477 124.834L221.155 193.568C220.951 193.887 220.692 194.16 220.393 194.37C220.093 194.579 219.759 194.722 219.409 194.79C219.06 194.858 218.701 194.85 218.354 194.766C218.007 194.682 217.678 194.524 217.387 194.301L173.92 160.593C173.666 160.396 173.379 160.256 173.075 160.18C172.771 160.104 172.457 160.095 172.15 160.153C171.842 160.211 171.549 160.335 171.285 160.517C171.022 160.7 170.794 160.937 170.614 161.216L107.181 259.4C107.165 259.424 107.144 259.445 107.119 259.459C107.095 259.473 107.068 259.48 107.04 259.48ZM85.1967 259.114H106.953L170.24 160.974C170.652 160.329 171.281 159.889 171.989 159.751C172.696 159.614 173.425 159.79 174.014 160.242L217.481 193.949C217.735 194.146 218.022 194.287 218.326 194.362C218.63 194.438 218.945 194.447 219.252 194.389C219.559 194.331 219.852 194.208 220.116 194.025C220.379 193.843 220.608 193.605 220.787 193.326L265.203 124.446C265.214 124.425 265.23 124.408 265.248 124.395C265.267 124.383 265.288 124.375 265.31 124.373C265.329 124.362 265.351 124.357 265.373 124.357C265.395 124.357 265.417 124.362 265.436 124.373L270.613 128.388L266.933 104.932L245.483 108.963L250.66 112.978C250.695 113.007 250.718 113.049 250.727 113.095C250.744 113.14 250.744 113.19 250.727 113.235L216.759 165.913C216.555 166.232 216.296 166.504 215.995 166.711C215.695 166.919 215.359 167.059 215.009 167.122C214.307 167.25 213.588 167.071 213.005 166.624L169.545 132.917C169.29 132.714 169 132.568 168.693 132.49C168.385 132.411 168.067 132.4 167.756 132.458C167.445 132.516 167.147 132.642 166.881 132.828C166.615 133.013 166.385 133.255 166.205 133.54L85.1967 259.114Z" fill="white"/>
<path d="M232.497 217.478H229.752V262.287H232.497V217.478Z" fill="#263238"/>
<path d="M256.519 193.062H253.773V262.287H256.519V193.062Z" fill="#263238"/>
<path d="M280.981 209.667H278.235V262.287H280.981V209.667Z" fill="#263238"/>
<path d="M229.759 217.478H210.507V262.287H229.759V217.478Z" fill="#0E6592"/>
<path opacity="0.2" d="M210.507 217.478V244.048L220.126 217.478H210.507Z" fill="white"/>
<path d="M253.773 193.062H234.521V262.287H253.773V193.062Z" fill="#0E6592"/>
<path opacity="0.2" d="M234.521 193.062V219.633L244.147 193.062H234.521Z" fill="white"/>
<path d="M278.242 209.667H258.99V262.287H278.242V209.667Z" fill="#0E6592"/>
<path opacity="0.2" d="M258.99 209.667V233.313L268.616 209.667H258.99Z" fill="white"/>
<path d="M165.717 258.623L160.554 257.561L161.429 244.158L166.593 245.228L165.717 258.623Z" fill="#7F3E3B"/>
<path d="M200.467 258.469H195.21L193.907 245.125H199.158L200.467 258.469Z" fill="#7F3E3B"/>
<path d="M194.782 257.802H201.182C201.286 257.803 201.387 257.843 201.468 257.914C201.55 257.986 201.606 258.086 201.629 258.198L202.671 263.328C202.695 263.452 202.693 263.581 202.666 263.705C202.638 263.829 202.586 263.945 202.512 264.043C202.438 264.142 202.345 264.221 202.24 264.274C202.134 264.328 202.019 264.355 201.903 264.353C199.839 264.317 198.336 264.178 195.744 264.178C194.148 264.178 189.331 264.361 187.127 264.361C184.922 264.361 184.635 261.972 185.537 261.752C189.585 260.785 192.631 259.444 193.927 258.169C194.16 257.934 194.465 257.803 194.782 257.802Z" fill="#263238"/>
<path d="M160.661 256.315L166.319 257.385C166.421 257.404 166.514 257.461 166.583 257.546C166.653 257.632 166.693 257.74 166.699 257.854L166.927 263.093C166.932 263.22 166.912 263.346 166.867 263.463C166.822 263.58 166.754 263.684 166.667 263.767C166.581 263.851 166.478 263.913 166.367 263.947C166.255 263.981 166.138 263.987 166.025 263.965C164.021 263.54 161.062 262.851 158.503 262.368C155.504 261.803 154.041 261.393 150.527 260.726C148.403 260.323 148.864 257.795 149.792 257.729C153.994 257.524 155.477 258.227 159.345 256.52C159.757 256.319 160.213 256.247 160.661 256.315Z" fill="#263238"/>
<path d="M178.65 82.136C178.47 82.7222 178.329 83.1472 178.162 83.6015C177.995 84.0558 177.828 84.5395 177.655 85.0011C177.307 85.9317 176.94 86.8404 176.552 87.749C175.779 89.5724 174.911 91.3461 173.954 93.0616C171.995 96.7311 169.444 99.9789 166.425 102.646C165.585 103.349 164.691 103.972 163.753 104.507C163.513 104.654 163.266 104.779 163.012 104.903C162.758 105.028 162.531 105.145 162.23 105.269C161.638 105.509 161.028 105.69 160.407 105.812C159.398 105.998 158.377 106.094 157.354 106.097C156.392 106.097 155.47 106.097 154.562 106.002C151.018 105.692 147.512 104.995 144.094 103.921L144.622 99.6345C147.962 99.4953 151.349 99.378 154.528 99.0702C155.323 98.9896 156.105 98.8871 156.846 98.7625C157.525 98.6614 158.195 98.4996 158.85 98.2789C159.064 98.2118 159.27 98.1184 159.465 98.0004C159.685 97.8539 159.986 97.7146 160.233 97.5241C160.778 97.1475 161.294 96.7236 161.776 96.2564C162.842 95.2196 163.803 94.0601 164.642 92.7978C165.557 91.4589 166.391 90.0563 167.14 88.599C167.922 87.1335 168.623 85.5727 169.311 84.0045C169.645 83.2205 169.979 82.4218 170.273 81.623L170.721 80.4286L171.128 79.3002L178.65 82.136Z" fill="#7F3E3B"/>
<path d="M176.118 75.3799C185.704 75.3799 175.17 98.0957 175.17 98.0957L162.939 92.6659C162.939 92.6659 166.279 84.7666 168.476 80.2454C169.188 78.7137 170.288 77.4398 171.643 76.5768C172.999 75.7137 174.553 75.2981 176.118 75.3799Z" fill="#0E6592"/>
<g opacity="0.3">
<path d="M176.118 75.3799C185.704 75.3799 175.17 98.0957 175.17 98.0957L162.939 92.6659C162.939 92.6659 166.279 84.7666 168.476 80.2454C169.188 78.7137 170.288 77.4398 171.643 76.5768C172.999 75.7137 174.553 75.2981 176.118 75.3799Z" fill="white"/>
</g>
<path opacity="0.2" d="M173.774 82.7222C170.267 85.4261 167.828 90.4455 167.134 94.5197L174.121 97.6267C175.39 95.5456 176.626 93.0908 177.989 90.9365C178.363 89.8154 178.73 88.6356 179.051 87.4412L173.774 82.7222Z" fill="black"/>
<path d="M147.628 100.184L143.426 97.5826L140.207 104.178C142.066 104.523 143.969 104.47 145.811 104.024L147.628 100.184Z" fill="#7F3E3B"/>
<path d="M139.405 97.5826L137.067 103.401L140.18 104.2L143.4 97.5826H139.405Z" fill="#7F3E3B"/>
<path opacity="0.2" d="M161.429 244.166L160.981 251.068L166.145 252.131L166.593 245.228L161.429 244.166Z" fill="black"/>
<path opacity="0.2" d="M199.158 245.133H193.9L194.582 252.014H199.832L199.158 245.133Z" fill="black"/>
<path d="M202.257 77.8932C200.717 84.1125 199.6 90.4489 198.917 96.8499C198.416 101.312 198.122 105.57 197.935 109.439C197.494 118.496 197.681 125.399 197.434 127.758C193.326 127.45 177.848 126.293 169.378 125.618C165.564 92.8417 172.852 75.9587 172.852 75.9587C175.059 75.5036 177.29 75.1977 179.532 75.0428C180.006 75.0428 180.494 74.9915 180.981 74.9841C184.966 75.0354 188.945 75.3387 192.898 75.8928C193.647 75.988 194.408 76.1126 195.143 76.2445C198.957 76.8893 202.257 77.8932 202.257 77.8932Z" fill="#0E6592"/>
<g opacity="0.3">
<path d="M202.257 77.8932C200.717 84.1125 199.6 90.4489 198.917 96.8499C198.416 101.312 198.122 105.57 197.935 109.439C197.494 118.496 197.681 125.399 197.434 127.758C193.326 127.45 177.848 126.293 169.378 125.618C165.564 92.8417 172.852 75.9587 172.852 75.9587C175.059 75.5036 177.29 75.1977 179.532 75.0428C180.006 75.0428 180.494 74.9915 180.981 74.9841C184.966 75.0354 188.945 75.3387 192.898 75.8928C193.647 75.988 194.408 76.1126 195.143 76.2445C198.957 76.8893 202.257 77.8932 202.257 77.8932Z" fill="white"/>
</g>
<path opacity="0.2" d="M195.183 86.1881C195.129 90.9046 196.335 95.5352 198.65 99.5098C198.73 98.6305 198.824 97.7439 198.924 96.8499C199.298 93.4938 199.779 90.0205 200.413 86.5105L195.183 86.1881Z" fill="black"/>
<path d="M192.711 61.0615C191.696 65.2163 190.453 72.8591 192.958 75.8708C191.692 77.1314 190.193 78.0789 188.563 78.649C186.934 79.2192 185.211 79.3987 183.513 79.1755C180.22 78.8458 180.22 76.3031 181.041 74.9621C185.39 74.1707 185.497 70.6828 184.963 67.356L192.711 61.0615Z" fill="#7F3E3B"/>
<path d="M181.102 80.5459C181.179 81.1926 181.318 81.8287 181.516 82.4438C181.572 82.6397 181.685 82.8106 181.836 82.9318C181.987 83.0531 182.17 83.1182 182.357 83.1179C182.906 83.1091 183.454 83.1607 183.994 83.2718C184.108 83.301 184.226 83.3044 184.34 83.2817C184.455 83.259 184.565 83.2107 184.662 83.1399C185.33 82.6783 186.185 81.9968 185.965 81.1468C185.704 80.1502 184.141 79.2489 184.141 79.2489C184.141 79.2489 181.456 79.9743 181.102 80.5459Z" fill="#263238"/>
<path d="M182.511 82.4437C181.435 85.0231 178.951 101.54 178.643 104.038C178.336 106.537 179.385 110.567 180.841 113.77C182.515 111.251 183.468 108.244 183.58 105.13C183.773 101.716 183.961 82.8541 183.961 82.8541L182.511 82.4437Z" fill="#263238"/>
<path d="M184.121 79.2488C185.115 80.1586 185.937 81.2741 186.539 82.5316C188.229 82.385 195.691 78.7945 194.628 76.0246C193.7 75.7388 192.885 75.1526 192.624 75.453C192.27 76.0466 189.104 78.1423 184.121 79.2488Z" fill="white"/>
<path d="M184.121 79.2488C184.121 79.2488 181.255 80.3113 180.587 82.0993C178.857 81.2566 177.915 77.4535 179.445 74.9548C180.4 74.8668 181.315 74.3466 181.489 74.691C181.756 75.3431 181.028 77.0944 184.121 79.2488Z" fill="white"/>
<path opacity="0.2" d="M189.552 63.6335L184.963 67.3487C185.101 68.1238 185.175 68.9111 185.183 69.7009C186.833 69.569 189.191 67.7737 189.498 65.9125C189.644 65.1629 189.662 64.3903 189.552 63.6335Z" fill="black"/>
<path d="M181.582 47.7178C179.578 48.5825 178.837 57.0899 182.918 56.2546C187 55.4192 185.617 45.9812 181.582 47.7178Z" fill="#263238"/>
<path d="M194.816 56.2253C193.179 61.6551 192.478 64.9233 189.258 67.0263C184.408 70.1845 178.804 65.8612 178.924 60.0064C179.031 54.7378 181.683 46.736 187.14 45.9666C188.342 45.7882 189.565 45.95 190.694 46.4365C191.822 46.9231 192.818 47.7183 193.588 48.7465C194.357 49.7747 194.873 51.0016 195.088 52.3107C195.303 53.6197 195.209 54.9673 194.816 56.2253Z" fill="#7F3E3B"/>
<path d="M192.958 59.9624C190.881 60.0064 189.178 53.1037 193.366 51.1692C190.066 50.7515 179.932 51.3597 178.115 46.3915C176.299 41.4234 183.346 40.654 185.744 42.5298C184.983 39.7966 188.082 35.7664 193.653 39.4302C199.224 43.0941 199.157 47.6153 198.636 48.9562C201.121 49.689 201.609 55.7563 198.864 56.5697C200.473 59.0171 199.084 64.1611 194.742 63.062C194.595 66.059 191.549 64.7474 191.736 62.4465C191.923 60.1456 192.958 59.9624 192.958 59.9624Z" fill="#263238"/>
<path d="M183.7 61.2888C184.287 61.4772 184.907 61.509 185.508 61.3816C186.108 61.2541 186.673 60.9711 187.154 60.556C187.178 60.5274 187.192 60.4893 187.192 60.4498C187.192 60.4102 187.178 60.3722 187.154 60.3435C187.129 60.3167 187.095 60.3016 187.06 60.3016C187.025 60.3016 186.991 60.3167 186.967 60.3435C186.522 60.734 186.001 61.0039 185.443 61.1312C184.886 61.2586 184.309 61.2398 183.76 61.0763C183.743 61.0708 183.726 61.0691 183.709 61.0714C183.691 61.0736 183.675 61.0797 183.66 61.0894C183.645 61.099 183.632 61.1119 183.621 61.1273C183.611 61.1427 183.604 61.1603 183.6 61.1789C183.605 61.2061 183.617 61.231 183.635 61.2506C183.652 61.2702 183.675 61.2835 183.7 61.2888Z" fill="#263238"/>
<path d="M195.851 61.9848C194.891 62.9674 193.616 63.4942 192.304 63.4503C190.567 63.3697 190.233 61.5232 191.162 60.0356C192.003 58.6947 193.914 57.1046 195.437 57.9179C195.768 58.1002 196.053 58.3705 196.264 58.7041C196.476 59.0376 196.609 59.424 196.65 59.8281C196.691 60.2321 196.64 60.6411 196.5 61.0177C196.361 61.3944 196.137 61.7268 195.851 61.9848Z" fill="#7F3E3B"/>
<path d="M159.238 248.833L167.922 251.083C167.922 251.083 170.995 213.968 173.633 193.575C174.335 188.167 175.417 180.561 177.067 172.457C179.144 162.249 181.743 151.207 183.894 142.56C186.145 133.452 187.862 127.011 187.862 127.011L169.438 125.596C169.438 125.596 159.465 173.3 158.41 190.813C157.281 209.088 159.238 248.833 159.238 248.833Z" fill="#263238"/>
<path opacity="0.2" d="M177.02 172.457C179.098 162.249 181.696 151.207 183.847 142.56L181.93 138.039C177.381 143.996 176.152 162.44 177.02 172.457Z" fill="black"/>
<path d="M179.351 126.359C179.351 126.359 181.355 175.688 183.56 192.396C185.985 210.715 192.15 250.68 192.15 250.68H201.776C201.776 250.68 199.104 212.671 197.294 194.755C195.23 174.347 197.434 127.743 197.434 127.743L179.351 126.359Z" fill="#263238"/>
<path d="M191.001 250.907H202.331L202.832 247.192L190.327 246.95L191.001 250.907Z" fill="#0E6592"/>
<path d="M158.683 249.471L168.55 251.508L169.665 247.734L158.416 245.397L158.683 249.471Z" fill="#0E6592"/>
<path d="M187.207 55.793C187.093 56.24 186.793 56.5257 186.539 56.4671C186.285 56.4085 186.138 55.9615 186.245 55.5145C186.352 55.0675 186.659 54.7817 186.913 54.8404C187.167 54.899 187.314 55.346 187.207 55.793Z" fill="#263238"/>
<path d="M182.571 54.4594C182.464 54.9064 182.157 55.1921 181.903 55.1262C181.649 55.0603 181.509 54.6279 181.616 54.1736C181.723 53.7193 182.03 53.4408 182.284 53.4995C182.538 53.5581 182.678 54.0051 182.571 54.4594Z" fill="#263238"/>
<path d="M183.6 54.877C182.78 56.1091 181.811 57.2135 180.721 58.1597C181.262 59.105 182.658 59.0244 182.658 59.0244L183.6 54.877Z" fill="#630F0F"/>
<path d="M188.643 54.3347C188.597 54.3315 188.552 54.3141 188.514 54.2842C188.476 54.2544 188.447 54.2135 188.429 54.1662C188.317 53.846 188.137 53.5593 187.905 53.329C187.673 53.0987 187.395 52.9312 187.093 52.8398C187.061 52.8331 187.031 52.8195 187.004 52.7999C186.976 52.7802 186.953 52.7548 186.935 52.7252C186.916 52.6956 186.904 52.6624 186.897 52.6273C186.89 52.5923 186.89 52.5562 186.896 52.5211C186.902 52.486 186.915 52.4525 186.933 52.4226C186.951 52.3928 186.974 52.3671 187.001 52.347C187.028 52.3269 187.058 52.3129 187.09 52.3057C187.122 52.2984 187.155 52.2982 187.187 52.3049C187.57 52.4121 187.924 52.6184 188.219 52.9065C188.514 53.1947 188.742 53.5563 188.884 53.961C188.897 53.9941 188.904 54.0298 188.904 54.0659C188.904 54.1021 188.898 54.1379 188.886 54.1714C188.873 54.2048 188.855 54.2352 188.832 54.2607C188.808 54.2863 188.781 54.3064 188.75 54.32C188.716 54.334 188.679 54.339 188.643 54.3347Z" fill="#263238"/>
<path d="M180.614 51.9093C180.562 51.9028 180.513 51.8799 180.474 51.8434C180.45 51.8181 180.431 51.7879 180.418 51.7546C180.405 51.7212 180.399 51.6854 180.399 51.6492C180.399 51.613 180.405 51.5772 180.418 51.5438C180.431 51.5105 180.45 51.4803 180.474 51.455C180.724 51.1194 181.043 50.8544 181.406 50.6823C181.769 50.5102 182.164 50.4359 182.558 50.4658C182.622 50.4783 182.68 50.517 182.719 50.574C182.759 50.631 182.777 50.7022 182.771 50.7736C182.761 50.8449 182.727 50.9092 182.674 50.953C182.622 50.9967 182.556 51.0165 182.491 51.008C182.179 50.9925 181.867 51.0573 181.582 51.1973C181.297 51.3372 181.045 51.5485 180.848 51.8141C180.819 51.8507 180.783 51.8787 180.742 51.8954C180.701 51.9121 180.657 51.9169 180.614 51.9093Z" fill="#263238"/>
<path d="M193.052 258.814C192.693 258.844 192.336 258.741 192.037 258.521C191.942 258.431 191.869 258.318 191.825 258.19C191.781 258.062 191.766 257.923 191.783 257.788C191.781 257.708 191.8 257.63 191.838 257.563C191.876 257.495 191.931 257.441 191.997 257.407C192.578 257.077 194.268 258.22 194.462 258.352C194.482 258.365 194.498 258.385 194.507 258.409C194.517 258.432 194.52 258.459 194.515 258.484C194.513 258.512 194.502 258.538 194.486 258.559C194.469 258.58 194.446 258.595 194.421 258.601C193.974 258.728 193.514 258.799 193.052 258.814ZM192.27 257.619C192.215 257.614 192.159 257.627 192.11 257.656C192.077 257.656 192.037 257.707 192.03 257.817C192.018 257.908 192.028 258 192.057 258.086C192.086 258.172 192.134 258.248 192.197 258.308C192.784 258.601 193.45 258.638 194.061 258.411C193.514 258.022 192.904 257.753 192.264 257.619H192.27Z" fill="#0E6592"/>
<path d="M194.388 258.608H194.328C193.787 258.286 192.731 257.018 192.845 256.41C192.863 256.31 192.912 256.219 192.984 256.154C193.056 256.089 193.146 256.052 193.239 256.051C193.334 256.036 193.432 256.045 193.524 256.075C193.616 256.105 193.701 256.157 193.773 256.227C194.381 256.769 194.508 258.425 194.515 258.506C194.515 258.53 194.51 258.555 194.499 258.577C194.489 258.598 194.474 258.617 194.455 258.63C194.431 258.631 194.408 258.623 194.388 258.608ZM193.326 256.271H193.272C193.112 256.271 193.099 256.373 193.092 256.41C193.025 256.784 193.693 257.744 194.234 258.191C194.199 257.535 193.983 256.906 193.613 256.388C193.534 256.312 193.431 256.27 193.326 256.271Z" fill="#0E6592"/>
<path d="M160.033 257.004C159.171 257.004 157.655 256.967 157.174 256.315C157.098 256.215 157.046 256.095 157.024 255.967C157.002 255.838 157.01 255.706 157.047 255.582C157.061 255.51 157.092 255.444 157.136 255.388C157.181 255.333 157.237 255.292 157.301 255.267C157.969 255.011 159.892 256.549 160.106 256.733C160.127 256.749 160.142 256.772 160.149 256.798C160.156 256.825 160.155 256.853 160.146 256.879C160.143 256.911 160.13 256.941 160.11 256.964C160.089 256.986 160.062 257 160.033 257.004ZM157.401 255.538C157.375 255.548 157.351 255.565 157.333 255.588C157.316 255.612 157.304 255.64 157.301 255.67C157.279 255.747 157.275 255.829 157.289 255.908C157.303 255.987 157.334 256.062 157.381 256.124C157.648 256.498 158.49 256.711 159.665 256.718C158.87 256.146 157.802 255.45 157.401 255.545V255.538Z" fill="#0E6592"/>
<path d="M160.033 257.004C160.003 257.017 159.969 257.017 159.939 257.004C159.365 256.579 158.323 255.113 158.516 254.49C158.563 254.344 158.69 254.175 159.031 254.197C159.159 254.203 159.284 254.238 159.399 254.3C159.514 254.362 159.616 254.449 159.699 254.556C160.267 255.289 160.166 256.835 160.16 256.901C160.158 256.924 160.151 256.947 160.14 256.966C160.128 256.985 160.112 257.001 160.093 257.011L160.033 257.004ZM158.87 254.461C158.777 254.461 158.757 254.534 158.75 254.556C158.637 254.93 159.325 256.058 159.892 256.593C159.939 255.937 159.797 255.28 159.485 254.717C159.427 254.641 159.356 254.578 159.276 254.533C159.195 254.488 159.108 254.461 159.017 254.454C158.969 254.444 158.918 254.446 158.87 254.461Z" fill="#0E6592"/>
<path d="M178.429 103.628L176.299 101.957L141.362 155.603L143.493 157.274C149.986 162.1 157.942 163.95 165.661 162.431C173.381 160.912 180.254 156.143 184.813 149.142C189.372 142.142 191.256 133.464 190.064 124.96C188.871 116.457 184.696 108.802 178.429 103.628Z" fill="#0E6592"/>
<path opacity="0.1" d="M178.429 103.628L176.299 101.957L141.362 155.603L143.493 157.274C149.986 162.1 157.942 163.95 165.661 162.431C173.381 160.912 180.254 156.143 184.813 149.142C189.372 142.142 191.256 133.464 190.064 124.96C188.871 116.457 184.696 108.802 178.429 103.628Z" fill="black"/>
<path d="M126.686 132.975C126.189 128.442 126.495 123.847 127.588 119.441L128.256 119.632C127.182 123.948 126.883 128.453 127.374 132.895L126.686 132.975Z" fill="#0E6592"/>
<path d="M128.71 141.82C128.115 140.152 127.634 138.438 127.274 136.69L127.942 136.529C128.298 138.236 128.769 139.911 129.352 141.541L128.71 141.82Z" fill="#0E6592"/>
<path d="M164.904 161.053C181.157 157.38 191.618 139.949 188.27 122.121C184.922 104.292 169.032 92.8158 152.779 96.4885C136.526 100.161 126.065 117.592 129.413 135.421C132.761 153.25 148.651 164.725 164.904 161.053Z" fill="#0E6592"/>
<path d="M151.736 137.116L156.452 129.883C154.814 127.626 153.938 125.467 153.827 123.405C153.742 121.299 154.331 119.225 155.49 117.543C156.593 115.751 158.29 114.502 160.22 114.063C162.215 113.646 164.28 114.067 166.005 115.242L167.14 113.498L169.425 115.286L168.283 117.03C169.68 118.318 170.652 120.074 171.048 122.028C171.347 123.947 171.065 125.921 170.247 127.648L165.891 125.098C166.209 124.44 166.367 123.704 166.351 122.96C166.334 122.215 166.144 121.488 165.798 120.848L161.402 127.604C163.433 130.33 164.517 132.646 164.655 134.551C164.756 136.589 164.182 138.598 163.039 140.208C161.831 142.181 159.99 143.581 157.882 144.128C155.66 144.63 153.348 144.229 151.376 143L150.24 144.744L147.955 142.956L149.038 141.292C147.48 139.825 146.43 137.815 146.065 135.599C145.786 133.186 146.226 130.738 147.321 128.623L151.75 131.363C151.332 132.339 151.124 133.407 151.142 134.485C151.15 135.401 151.353 136.302 151.736 137.116ZM163.546 118.98C162.817 118.719 162.031 118.719 161.302 118.98C160.598 119.226 159.986 119.717 159.559 120.379C159.164 120.992 158.954 121.725 158.957 122.475C158.965 123.35 159.197 124.206 159.625 124.944L163.546 118.98ZM153.86 139.153C154.691 139.593 155.637 139.7 156.532 139.453C157.431 139.211 158.217 138.617 158.744 137.782C159.226 137.067 159.463 136.187 159.412 135.298C159.284 134.225 158.865 133.219 158.209 132.411L153.86 139.153Z" fill="white"/>
<path opacity="0.1" d="M183.172 126.036C181.774 119.376 178.112 113.551 172.934 109.75C167.756 105.948 161.452 104.456 155.306 105.578C149.159 106.699 143.635 110.349 139.857 115.785C136.08 121.22 134.334 128.031 134.976 134.829C134.226 131.258 134.151 127.556 134.754 123.951C135.358 120.346 136.628 116.916 138.487 113.87C140.345 110.824 142.752 108.228 145.559 106.241C148.367 104.254 151.516 102.919 154.811 102.318C158.107 101.717 161.48 101.862 164.723 102.745C167.966 103.628 171.009 105.229 173.666 107.451C176.323 109.673 178.537 112.469 180.172 115.665C181.807 118.861 182.828 122.391 183.172 126.036Z" fill="black"/>
<path d="M202.932 81.0442C203.6 81.9748 204.154 82.8102 204.715 83.7188C205.276 84.6274 205.824 85.4994 206.359 86.408C207.421 88.2253 208.429 90.0719 209.365 91.9991C210.3 93.9262 211.168 95.8974 211.956 97.9345L212.531 99.4806L213.052 101.071C213.226 101.591 213.373 102.148 213.526 102.69L213.747 103.511L213.807 103.716L213.907 104.163C213.97 104.467 214.015 104.776 214.041 105.086C214.104 106.119 213.979 107.155 213.673 108.135C213.442 108.871 213.14 109.579 212.771 110.245C212.162 111.335 211.454 112.356 210.66 113.293C209.251 114.936 207.721 116.448 206.085 117.814C202.974 120.42 199.661 122.722 196.185 124.695L194.021 121.075C196.819 118.459 199.618 115.704 202.15 112.912C203.38 111.576 204.523 110.146 205.57 108.633C206.015 108.001 206.4 107.321 206.719 106.603C206.818 106.368 206.894 106.123 206.946 105.87C206.946 105.709 206.946 105.68 206.946 105.87C206.936 105.924 206.936 105.978 206.946 106.032C206.945 106.054 206.945 106.076 206.946 106.098L206.886 105.936L206.652 105.291C206.492 104.852 206.352 104.419 206.165 103.987L205.63 102.69L205.063 101.393C204.268 99.6711 203.419 97.9565 202.497 96.2638C201.576 94.5711 200.62 92.8857 199.625 91.2297C199.137 90.3943 198.63 89.5663 198.122 88.7529L196.599 86.3714L202.932 81.0442Z" fill="#7F3E3B"/>
<path d="M202.257 77.8932C207.18 78.985 211.502 92.1895 211.502 92.1895L201.228 101.371C201.228 101.371 197.888 94.6589 195.163 88.1813C192.23 81.1247 196.292 76.5742 202.257 77.8932Z" fill="#0E6592"/>
<g opacity="0.3">
<path d="M202.257 77.8932C207.18 78.985 211.502 92.1895 211.502 92.1895L201.228 101.371C201.228 101.371 197.888 94.6589 195.163 88.1813C192.23 81.1247 196.292 76.5742 202.257 77.8932Z" fill="white"/>
</g>
<path d="M195.236 120.57L189.932 121.207L193.373 127.524C193.373 127.524 197.782 125.882 197.247 123.23L195.236 120.57Z" fill="#7F3E3B"/>
<path d="M186.773 124.541L189.839 129.619L193.373 127.524L189.932 121.207L186.773 124.541Z" fill="#7F3E3B"/>
</svg>
